<?xml version="1.0" standalone="no"?>
<!DOCTYPE svg PUBLIC "-//W3C//DTD SVG 20010904//EN"
 "http://www.w3.org/TR/2001/REC-SVG-20010904/DTD/svg10.dtd">
<svg version="1.0" xmlns="http://www.w3.org/2000/svg"
 width="512.000000pt" height="512.000000pt" viewBox="0 0 512.000000 512.000000"
 preserveAspectRatio="xMidYMid meet">

<g transform="translate(0.000000,512.000000) scale(0.100000,-0.100000)"
fill="#000000" stroke="none">
<path d="M846 5105 c-46 -16 -101 -67 -127 -117 -17 -34 -19 -61 -19 -331 l0
-295 -37 -7 c-54 -10 -117 -39 -174 -81 -39 -28 -91 -98 -269 -362 l-221 -327
3 -215 c3 -208 4 -217 29 -271 37 -79 90 -133 167 -171 57 -28 77 -33 142 -33
41 0 92 4 113 8 l37 8 0 -1000 c0 -550 3 -1007 6 -1016 4 -10 21 -23 37 -30
39 -16 80 -3 96 31 8 18 11 309 11 1065 l0 1041 39 -31 c73 -58 126 -76 226
-76 78 0 98 4 145 27 30 15 71 43 91 63 l37 35 38 -36 c22 -20 64 -48 94 -63
46 -22 69 -26 140 -26 103 0 160 20 235 80 l53 43 33 -34 c19 -19 59 -47 89
-62 47 -23 67 -27 145 -27 81 0 97 3 155 32 36 18 78 45 94 62 l29 30 44 -38
c77 -68 124 -86 233 -86 109 0 156 18 233 86 l44 38 29 -30 c16 -17 58 -44 94
-62 58 -29 73 -32 155 -32 106 0 157 19 228 84 l44 41 39 -37 c21 -20 64 -48
94 -62 46 -22 69 -26 145 -26 77 0 98 4 145 26 30 15 72 43 94 63 l38 36 37
-35 c20 -20 61 -48 91 -63 47 -23 67 -27 145 -27 100 0 153 18 226 76 l39 31
0 -725 c0 -399 3 -733 6 -742 11 -28 59 -46 90 -35 56 22 53 -9 54 733 l0 688
23 -13 c13 -7 59 -13 112 -13 77 0 98 4 146 26 79 37 133 90 171 167 l33 66 3
216 3 215 -206 305 c-114 168 -227 326 -252 352 -54 55 -121 94 -191 109 l-52
11 0 291 c0 262 -2 296 -19 333 -23 49 -88 107 -140 122 -28 9 -468 12 -1707
12 -1394 -1 -1675 -3 -1708 -15z m2909 -435 c3 -11 18 -29 32 -40 24 -19 40
-20 254 -20 l229 0 0 -125 0 -125 -1710 0 -1710 0 0 125 0 125 1305 0 c1424 0
1356 -3 1371 55 6 25 8 25 114 25 99 0 109 -2 115 -20z m-2415 -464 c0 -7
-208 -558 -213 -562 -2 -2 -87 -3 -189 -2 l-185 3 130 245 c71 135 136 254
145 264 42 48 71 56 195 56 64 0 117 -2 117 -4z m913 -53 c-3 -32 -12 -159
-21 -283 l-17 -225 -192 -3 c-136 -2 -193 1 -193 9 0 18 108 492 121 527 l11
32 148 0 148 0 -5 -57z m916 25 c13 -35 121 -509 121 -527 0 -8 -61 -11 -193
-11 l-193 0 -17 253 c-10 138 -21 267 -24 285 l-5 32 150 0 150 0 11 -32z
m871 17 c43 -22 66 -58 203 -317 l125 -238 -188 0 -189 0 -19 53 c-153 406
-192 511 -192 514 0 1 52 3 115 3 84 0 124 -4 145 -15z m-3490 -852 c0 -122
-4 -155 -19 -188 -66 -147 -281 -152 -355 -10 -18 34 -21 61 -24 193 l-3 152
200 0 201 0 0 -147z m1108 -5 c-3 -116 -8 -160 -20 -183 -36 -67 -114 -115
-185 -115 -73 1 -157 57 -184 125 -13 32 -25 284 -16 309 6 14 35 16 208 16
l201 0 -4 -152z m1102 4 c0 -137 -2 -153 -23 -193 -13 -24 -43 -57 -66 -74
-37 -26 -51 -30 -111 -30 -60 0 -74 4 -111 30 -23 17 -53 50 -66 74 -21 40
-23 56 -23 193 l0 148 200 0 200 0 0 -148z m1105 13 c0 -159 -7 -195 -48 -242
-79 -89 -205 -96 -290 -15 -55 52 -61 75 -65 240 l-4 152 203 -2 204 -3 0
-130z m1103 -17 c-3 -132 -6 -159 -24 -193 -74 -142 -289 -137 -355 10 -15 33
-19 66 -19 188 l0 147 201 0 200 0 -3 -152z"/>
<path d="M995 2361 c-22 -10 -48 -28 -58 -39 -46 -52 -46 -45 -47 -989 l0
-893 -36 0 c-28 0 -44 -8 -70 -34 l-34 -34 0 -111 0 -111 -55 0 -55 0 0 224
c0 211 -1 225 -21 250 -27 34 -77 36 -107 3 -21 -23 -22 -31 -22 -250 l0 -227
-220 0 -221 0 -24 -25 c-32 -31 -32 -69 0 -100 l24 -25 2511 0 2511 0 24 25
c32 31 32 69 0 100 -21 22 -33 25 -95 25 l-70 0 0 783 c0 774 0 783 -20 805
-28 30 -74 29 -105 -3 l-25 -24 0 -496 0 -495 -220 0 c-239 0 -258 -3 -299
-56 -20 -25 -21 -38 -21 -270 l0 -244 -83 0 -83 0 4 39 c7 76 -72 118 -123 66
-14 -13 -25 -33 -25 -45 0 -23 -33 -60 -55 -60 -8 0 -24 9 -35 20 -19 19 -20
33 -20 365 l0 345 293 0 c288 0 293 1 344 24 91 43 141 143 131 262 -3 39 -11
61 -28 79 -23 25 -23 25 -248 27 l-225 3 -19 58 c-35 107 -112 200 -195 234
-23 10 -43 21 -43 26 0 20 -43 47 -75 47 -27 0 -39 -7 -56 -30 -13 -16 -37
-35 -56 -41 -46 -15 -134 -97 -165 -156 -15 -26 -32 -69 -38 -95 l-12 -48
-235 0 -234 0 -24 -25 c-23 -22 -25 -32 -25 -107 0 -59 6 -95 19 -123 23 -51
89 -111 138 -124 23 -7 152 -11 321 -11 l282 0 0 -348 c0 -338 -1 -349 -20
-367 -33 -30 -70 -11 -86 43 -7 24 -21 50 -31 57 -26 21 -66 18 -91 -5 -22
-21 -26 -33 -22 -82 l2 -28 -71 0 -70 0 -3 238 c-4 343 7 332 -327 332 l-221
0 0 494 c0 484 0 494 -21 520 -27 34 -77 36 -107 3 l-22 -23 0 -782 0 -782
-145 0 -145 0 0 96 c0 139 -23 179 -110 194 l-35 5 -3 542 -2 542 -26 20 c-15
12 -33 21 -40 21 -11 0 -14 22 -14 100 0 78 3 100 14 100 7 0 25 9 40 21 l26
20 0 221 c0 248 -5 269 -77 318 l-37 25 -495 2 c-465 3 -498 2 -536 -16z
m2812 -932 c15 -6 39 -20 51 -32 24 -22 62 -88 62 -107 0 -6 -57 -10 -165 -10
-187 0 -185 -1 -132 76 50 73 115 99 184 73z m623 -333 c0 -15 -11 -33 -27
-45 -26 -21 -30 -21 -666 -19 l-639 3 -19 24 c-10 13 -19 32 -19 42 0 18 20
19 685 19 l685 0 0 -24z m-1302 -733 l-3 -208 -197 -3 -198 -2 0 210 0 210
200 0 200 0 -2 -207z m1652 -3 l0 -210 -195 0 -195 0 0 210 0 210 195 0 195 0
0 -210z m-2640 -140 l0 -70 -620 0 -620 0 0 70 0 70 620 0 620 0 0 -70z"/>
</g>
</svg>
